<?xml version="1.0" encoding="utf-8"?>
<!-- Generator: Adobe Illustrator 25.0.1, SVG Export Plug-In . SVG Version: 6.00 Build 0)  -->
<svg version="1.1" id="Layer_1" xmlns="http://www.w3.org/2000/svg" xmlns:xlink="http://www.w3.org/1999/xlink" x="0px" y="0px"
	 viewBox="0 0 613.42 404.08" style="enable-background:new 0 0 613.42 404.08;" xml:space="preserve">
<style type="text/css">
	.st0{fill:#FFFFFF;}
	.st1{fill:#0674BA;}
	.st2{fill:#E7B90C;}
	.st3{fill:#414142;}
</style>
<g>
	<g>
		<g>
			<path class="st3" d="M3.75,308.95c3.09-9.4,7.64-17.04,13.65-22.93c6.01-5.89,13.89-10.08,23.65-12.58
				c3.57-0.83,7.26-1.49,11.07-1.96c3.81-0.47,7.61-0.71,11.42-0.71c4.04-0.12,8.15,0.06,12.31,0.53c4.16,0.48,8.15,1.25,11.96,2.32
				c9.52,2.38,17.31,6.55,23.38,12.49c6.07,5.95,10.53,13.63,13.39,23.02c1.19,4.28,2.11,8.81,2.77,13.56
				c0.65,4.76,0.98,9.52,0.98,14.28c0,5.12-0.3,10.11-0.89,14.99c-0.6,4.88-1.55,9.52-2.86,13.92c-2.86,9.64-7.38,17.4-13.56,23.29
				c-6.19,5.89-14.16,9.97-23.92,12.23c-3.81,0.95-7.74,1.63-11.78,2.05c-4.05,0.42-8.15,0.63-12.31,0.63
				c-3.69,0-7.38-0.24-11.07-0.71c-3.69-0.48-7.32-1.13-10.89-1.96c-9.64-2.26-17.55-6.34-23.74-12.23
				c-6.19-5.89-10.71-13.65-13.56-23.29c-1.19-4.16-2.11-8.68-2.77-13.56C0.33,347.45,0,342.51,0,337.51c0-5,0.3-9.96,0.89-14.9
				c0.59-4.94,1.55-9.43,2.86-13.47V308.95z M31.59,318.06c-0.83,3.21-1.43,6.46-1.79,9.73c-0.36,3.27-0.53,6.51-0.53,9.73
				c0,3.33,0.21,6.63,0.62,9.91c0.42,3.27,0.98,6.46,1.7,9.55c1.31,5.47,3.48,10.23,6.51,14.28c3.03,4.05,7.29,7.02,12.76,8.92
				c2.02,0.71,4.16,1.25,6.43,1.61c2.26,0.36,4.52,0.54,6.78,0.54c2.26,0,4.52-0.18,6.78-0.54c2.26-0.36,4.4-0.89,6.43-1.61
				c5.47-1.9,9.75-4.88,12.85-8.92c3.09-4.04,5.23-8.8,6.43-14.28c0.71-3.09,1.28-6.27,1.7-9.55c0.42-3.27,0.62-6.57,0.62-9.91
				c0-3.21-0.21-6.45-0.62-9.73c-0.42-3.27-0.98-6.45-1.7-9.55c-1.19-5.47-3.33-10.26-6.43-14.37c-3.1-4.1-7.38-7.05-12.85-8.83
				c-2.02-0.71-4.17-1.25-6.43-1.61c-2.26-0.36-4.52-0.54-6.78-0.54c-2.26,0-4.52,0.18-6.78,0.54c-2.26,0.36-4.4,0.89-6.43,1.61
				c-5.47,1.91-9.7,4.88-12.67,8.92c-2.98,4.05-5.18,8.81-6.6,14.28V318.06z"/>
			<path class="st3" d="M190.61,307.35c12.37,0.12,22.01,2.56,28.91,7.32c6.9,4.76,10.35,13.86,10.35,27.31v59.43h-24.81v-56.58
				c0-6.54-1.07-10.95-3.21-13.21c-2.14-2.26-6.54-3.39-13.21-3.39l-19.99-0.18v73.35h-24.81v-94.06H190.61z"/>
			<path class="st3" d="M302.16,381.24h26.41v20.17h-33.73c-6.43,0-12.7-0.68-18.83-2.05c-6.13-1.37-11.63-4.37-16.51-9.01
				c-4.05-3.93-7.2-8.54-9.46-13.83c-2.26-5.29-3.69-10.74-4.28-16.33c0-0.83-0.03-1.7-0.09-2.59c-0.06-0.89-0.09-1.75-0.09-2.59
				c0-1.07,0.03-2.14,0.09-3.21c0.06-1.07,0.15-2.14,0.27-3.21c0.47-5.47,1.84-10.83,4.11-16.06c2.26-5.23,5.41-9.82,9.46-13.74
				c4.88-4.64,10.38-7.68,16.51-9.1c6.13-1.43,12.4-2.14,18.83-2.14l33.73-0.18v20.35h-26.41c-0.36,0.12-0.74,0.18-1.16,0.18
				c-0.42,0-0.8,0-1.16,0c-0.71,0-1.4,0-2.05,0c-0.66,0-1.28,0-1.87,0c-2.38,0-4.7,0.18-6.96,0.54c-2.26,0.36-4.4,1.13-6.43,2.32
				c-4.4,2.62-7.35,6.13-8.84,10.53c-1.49,4.4-2.23,8.99-2.23,13.74c0.12,4.64,0.95,9.07,2.5,13.3c1.55,4.22,4.4,7.59,8.57,10.08
				c2.02,1.19,4.16,1.96,6.43,2.32c2.26,0.36,4.58,0.6,6.96,0.71c0.71,0,1.46,0,2.23,0c0.77,0,1.52,0,2.23,0c0.36,0,0.68,0,0.98,0
				c0.3,0,0.56,0,0.8,0V381.24z"/>
			<path class="st3" d="M424.6,390.16c-4.52,4.52-9.97,7.85-16.33,9.99c-6.37,2.14-12.94,3.21-19.72,3.21
				c-6.78,0-13.33-1.07-19.63-3.21c-6.31-2.14-11.72-5.41-16.24-9.82c-4.64-4.52-8.12-9.93-10.44-16.24
				c-2.32-6.3-3.48-12.79-3.48-19.45c0-6.66,1.16-13.15,3.48-19.45c2.32-6.31,5.8-11.72,10.44-16.24c4.52-4.4,9.96-7.7,16.33-9.91
				c6.36-2.2,12.94-3.3,19.72-3.3c6.66,0,13.18,1.1,19.54,3.3c6.36,2.2,11.81,5.5,16.33,9.91c4.64,4.52,8.12,9.94,10.44,16.24
				c2.32,6.31,3.48,12.79,3.48,19.45c0,6.67-1.16,13.15-3.48,19.45c-2.32,6.31-5.8,11.72-10.44,16.24V390.16z M380.16,381.42
				c0.83,0.36,1.63,0.66,2.41,0.89c0.77,0.24,1.52,0.42,2.23,0.54c5.71,0.83,11.07-0.24,16.06-3.21c5-2.97,8.33-7.32,10-13.03
				c0.59-2.02,1.04-4.19,1.34-6.51c0.3-2.32,0.45-4.67,0.45-7.05c-0.24-5.23-1.49-10.2-3.75-14.9c-2.26-4.7-5.89-8.12-10.89-10.26
				c-1.07-0.47-2.2-0.83-3.39-1.07c-1.19-0.24-2.32-0.42-3.39-0.54c-5.48-0.47-10.59,0.78-15.35,3.75
				c-4.76,2.98-7.97,7.14-9.64,12.49c-0.6,2.02-1.04,4.14-1.34,6.34c-0.3,2.2-0.39,4.37-0.27,6.51c0.12,5.59,1.4,10.86,3.84,15.8
				c2.44,4.94,6.34,8.42,11.69,10.44V381.42z"/>
			<path class="st1" d="M521.51,273.26l54.61,128.15h-29.98l-11.78-30.52h-55.69l-11.42,30.52h-28.38l54.08-128.15H521.51z
				 M487.42,348.04h38.19l-19.46-49.26L487.42,348.04z"/>
			<path class="st1" d="M585.22,401.41V273.26h28.2v128.15H585.22z"/>
		</g>
	</g>
	<g>
		<path class="st2" d="M378.83,89.96v14.54h-20.39V89.96h-8.12V29.11C350.31,13.03,337.28,0,321.2,0h-58.09v89.96h-60.86
			c-16.07,0-29.11,13.03-29.11,29.11v12.17h37.45l20.95-20.95h46.29v-4.83h14.3v14.3h-14.3v-4.83h-44.37l-16.32,16.32h26.29v-4.83
			h14.3v14.3h-14.3v-4.83h-31.89v0h-20.3l16.34,16.34h51.88v-4.83h14.3v14.3h-14.3v-4.83h-53.8l-20.98-20.98h-11.55v41.28h89.96
			v60.86c0,14.67,10.86,26.8,24.98,28.81V140.94l25.51-25.51V53.97h-4.83v-14.3h14.3v14.3h-4.83v63.38l-25.51,25.51v124.26h36.53
			v-66.24l-15.65-14.78v-25.06h-4.83v-14.3h14.3v14.3h-4.83v23.06l15.65,14.78v68.24h16.41v-89.96h60.86
			c16.07,0,29.11-13.03,29.11-29.11V89.96H378.83z M406.85,116.12h-15.91V100.2h15.91V116.12z"/>
		<g>
			<rect x="365.94" y="53.97" class="st2" width="25.77" height="25.77"/>
			<rect x="358.43" y="20.02" class="st2" width="18.03" height="18.03"/>
			<rect x="400.63" y="47.75" class="st2" width="12.44" height="12.44"/>
			<rect x="389.41" y="11.67" class="st2" width="12.44" height="12.44"/>
		</g>
	</g>
</g>
</svg>
